# xmcd
#
# Track frame offsets:
#	150
#	17259
#	28185
#	41054
#	44231
#	60711
#	73581
#	91529
#	104102
#	118061
#	131967
#	146872
#	161888
#	189438
#	203892
#
# Disc length: 2804 seconds
#
# Revision: 21
# Processed by: cddbd v1.5.2PL0 Copyright (c) Steve Scherf et al.
# Submitted via: EasyCDDAExtractor 10.0.6.1
#
DISCID=e60af20f
DTITLE=Blink-182 - Take Off Your Pants And Jacket
DYEAR=2001
DGENRE=Punk Rock
TTITLE0=Anthem Part Two
TTITLE1=Online Songs
TTITLE2=First Date
TTITLE3=Happy Holidays, You Bastard
TTITLE4=Story Of A Lonely Guy
TTITLE5=The Rock Show
TTITLE6=Stay Together For The Kids
TTITLE7=Roller Coaster
TTITLE8=Reckless Abandon
TTITLE9=Everytime I Look For You
TTITLE10=Give Me One Good Reason
TTITLE11=Shut Up
TTITLE12=Please Take Me Home
TTITLE13=Time To Break Up
TTITLE14=Fuck A Dog
EXTD=YEAR: 2001
EXTT0=
EXTT1=
EXTT2=
EXTT3=
EXTT4=
EXTT5=
EXTT6=
EXTT7=
EXTT8=
EXTT9=
EXTT10=
EXTT11=
EXTT12=
EXTT13=
EXTT14=
PLAYORDER=
